<svg width="337" height="70" viewBox="0 0 337 70" fill="none" xmlns="http://www.w3.org/2000/svg">
<path d="M91.27 21.65C96.17 21.65 99.51 24.17 99.51 28.28C99.5411 29.1333 99.3444 29.9796 98.9402 30.7318C98.536 31.4839 97.9388 32.115 97.21 32.56C98.5736 33.022 99.755 33.9055 100.584 35.0829C101.412 36.2602 101.845 37.6705 101.82 39.11C101.82 43.72 98.22 46.85 93.43 46.85H85L84.82 46.67V21.83L85 21.65H91.27ZM89 31.37H91.23C93.64 31.37 94.72 30.47 94.72 28.49C94.72 26.76 93.64 25.86 91.23 25.86H89V31.37ZM89 42.64H93.25C95.59 42.64 97.06 41.41 97.06 39.11C97.06 36.81 95.59 35.58 93.25 35.58H89V42.64Z" fill="white"/>
<path d="M122.77 38.39C122.77 40.17 122.242 41.9101 121.253 43.3901C120.264 44.8702 118.859 46.0237 117.214 46.7049C115.57 47.3861 113.76 47.5643 112.014 47.2171C110.268 46.8698 108.665 46.0126 107.406 44.754C106.147 43.4953 105.29 41.8916 104.943 40.1458C104.596 38.4 104.774 36.5904 105.455 34.9459C106.136 33.3013 107.29 31.8957 108.77 30.9068C110.25 29.9178 111.99 29.39 113.77 29.39C114.955 29.378 116.131 29.6025 117.228 30.0506C118.326 30.4986 119.323 31.1611 120.161 31.9992C120.999 32.8374 121.661 33.8343 122.109 34.9317C122.557 36.029 122.782 37.2048 122.77 38.39ZM109.06 38.39C109.031 39.0248 109.13 39.6589 109.353 40.2541C109.576 40.8492 109.917 41.393 110.356 41.8526C110.795 42.3122 111.322 42.678 111.906 42.9279C112.491 43.1779 113.12 43.3067 113.755 43.3067C114.39 43.3067 115.019 43.1779 115.604 42.9279C116.188 42.678 116.715 42.3122 117.154 41.8526C117.593 41.393 117.934 40.8492 118.157 40.2541C118.38 39.6589 118.479 39.0248 118.45 38.39C118.479 37.7552 118.38 37.1211 118.157 36.5259C117.934 35.9308 117.593 35.387 117.154 34.9274C116.715 34.4678 116.188 34.102 115.604 33.8521C115.019 33.6021 114.39 33.4733 113.755 33.4733C113.12 33.4733 112.491 33.6021 111.906 33.8521C111.322 34.102 110.795 34.4678 110.356 34.9274C109.917 35.387 109.576 35.9308 109.353 36.5259C109.13 37.1211 109.031 37.7552 109.06 38.39V38.39Z" fill="white"/>
<path d="M141.89 30.11V33.64L141.71 33.82H139.83C140.107 34.5315 140.256 35.2865 140.27 36.05C140.282 36.9431 140.111 37.8293 139.769 38.6544C139.427 39.4795 138.921 40.2264 138.281 40.8495C137.641 41.4726 136.881 41.9589 136.047 42.2788C135.213 42.5987 134.322 42.7454 133.43 42.71C132.742 42.7237 132.06 42.5872 131.43 42.31C131.32 42.3959 131.231 42.505 131.169 42.6295C131.107 42.754 131.073 42.8908 131.07 43.03C131.07 45.03 142.07 43.83 142.07 50.81C142.07 54.19 138.76 56.39 133.72 56.39C128.68 56.39 124.65 55.02 124.65 51.06C124.65 49.06 126.12 47.39 128.28 46.06C127.877 45.767 127.551 45.3815 127.328 44.936C127.105 44.4905 126.993 43.998 127 43.5C127.022 42.9392 127.173 42.391 127.442 41.8983C127.711 41.4056 128.09 40.9818 128.55 40.66C127.917 40.0739 127.417 39.3595 127.082 38.5645C126.748 37.7695 126.587 36.9122 126.61 36.05C126.636 34.2606 127.371 32.5546 128.653 31.3062C129.936 30.0577 131.661 29.3686 133.45 29.39C134.375 29.405 135.29 29.588 136.15 29.93H141.73L141.89 30.11ZM129 50.77C129 51.96 130.36 52.68 133.75 52.68C136.52 52.68 137.75 51.78 137.75 50.68C137.75 48.56 133.18 47.99 131.38 47.37C130.29 48.07 129 49.3 129 50.77ZM130.51 36.05C130.524 36.6164 130.704 37.1662 131.029 37.6305C131.354 38.0948 131.808 38.4531 132.336 38.6603C132.863 38.8676 133.44 38.9148 133.994 38.7959C134.548 38.677 135.054 38.3973 135.45 37.9919C135.846 37.5864 136.113 37.0733 136.219 36.5166C136.324 35.9599 136.263 35.3845 136.043 34.8623C135.824 34.3401 135.454 33.8944 134.983 33.5809C134.511 33.2675 133.957 33.1002 133.39 33.1C132.623 33.1158 131.893 33.4351 131.36 33.9881C130.828 34.5411 130.537 35.2825 130.55 36.05H130.51Z" fill="white"/>
<path d="M159.89 30.11V33.64L159.71 33.82H157.83C158.107 34.5315 158.256 35.2865 158.27 36.05C158.282 36.9431 158.111 37.8293 157.769 38.6544C157.427 39.4795 156.921 40.2264 156.281 40.8495C155.641 41.4726 154.881 41.9589 154.047 42.2788C153.213 42.5987 152.322 42.7454 151.43 42.71C150.742 42.7237 150.06 42.5872 149.43 42.31C149.32 42.3959 149.231 42.505 149.169 42.6295C149.107 42.754 149.073 42.8908 149.07 43.03C149.07 45.03 160.07 43.83 160.07 50.81C160.07 54.19 156.76 56.39 151.72 56.39C146.68 56.39 142.65 55.02 142.65 51.06C142.65 49.06 144.12 47.39 146.28 46.06C145.877 45.767 145.551 45.3815 145.328 44.936C145.105 44.4905 144.993 43.998 145 43.5C145.022 42.9392 145.173 42.391 145.442 41.8983C145.711 41.4056 146.09 40.9818 146.55 40.66C145.917 40.0739 145.417 39.3595 145.082 38.5645C144.748 37.7695 144.587 36.9122 144.61 36.05C144.636 34.2606 145.371 32.5546 146.653 31.3062C147.936 30.0577 149.661 29.3686 151.45 29.39C152.375 29.405 153.29 29.588 154.15 29.93H159.73L159.89 30.11ZM147 50.77C147 51.96 148.36 52.68 151.75 52.68C154.52 52.68 155.75 51.78 155.75 50.68C155.75 48.56 151.18 47.99 149.38 47.37C148.29 48.07 147 49.3 147 50.77ZM148.51 36.05C148.524 36.6164 148.704 37.1662 149.029 37.6305C149.354 38.0948 149.808 38.4531 150.336 38.6603C150.863 38.8676 151.44 38.9148 151.994 38.7959C152.548 38.677 153.054 38.3973 153.45 37.9919C153.846 37.5864 154.113 37.0733 154.219 36.5166C154.324 35.9599 154.263 35.3845 154.043 34.8623C153.824 34.3401 153.455 33.8944 152.983 33.5809C152.511 33.2675 151.957 33.1002 151.39 33.1C150.623 33.1158 149.893 33.4351 149.36 33.9881C148.828 34.5411 148.537 35.2825 148.55 36.05H148.51Z" fill="white"/>
<path d="M178.35 45.27C176.363 46.5895 174.045 47.3241 171.66 47.39C170.426 47.4383 169.195 47.2381 168.04 46.8014C166.884 46.3648 165.829 45.7005 164.935 44.848C164.042 43.9955 163.328 42.9721 162.838 41.8387C162.348 40.7053 162.09 39.4849 162.08 38.25C162.029 37.0856 162.218 35.9231 162.636 34.8349C163.053 33.7468 163.69 32.7562 164.507 31.9251C165.325 31.0939 166.304 30.4399 167.385 30.0037C168.466 29.5676 169.625 29.3587 170.79 29.39C175.58 29.39 178.57 33.49 178.57 37.74C178.602 38.2501 178.541 38.7616 178.39 39.25L178.1 39.43H166.33C166.545 40.6623 167.208 41.7715 168.192 42.5434C169.177 43.3153 170.412 43.6953 171.66 43.61C174.075 43.5608 176.39 42.6329 178.17 41L178.35 41.18V45.27ZM174.35 36.27C174.231 35.4085 173.804 34.6195 173.147 34.0493C172.491 33.4792 171.65 33.1667 170.78 33.17C169.816 33.1257 168.866 33.4075 168.082 33.97C167.298 34.5325 166.727 35.3428 166.46 36.27H174.35Z" fill="white"/>
<path d="M198.84 21.65L199.02 21.83V46.67L198.84 46.85H195L194.82 46.67V46.13C193.525 46.9432 192.029 47.3795 190.5 47.39C188.113 47.39 185.824 46.4418 184.136 44.754C182.448 43.0661 181.5 40.7769 181.5 38.39C181.5 36.003 182.448 33.7139 184.136 32.026C185.824 30.3382 188.113 29.39 190.5 29.39C192.029 29.4005 193.525 29.8368 194.82 30.65V21.83L195 21.65H198.84ZM194.84 35.37C194.314 34.7789 193.673 34.3012 192.956 33.966C192.239 33.6307 191.461 33.445 190.67 33.42C190.026 33.4203 189.389 33.552 188.798 33.807C188.207 34.062 187.675 34.435 187.233 34.9031C186.791 35.3712 186.449 35.9245 186.229 36.5292C186.008 37.134 185.913 37.7773 185.95 38.42C185.913 39.0626 186.008 39.706 186.229 40.3108C186.449 40.9155 186.791 41.4688 187.233 41.9369C187.675 42.405 188.207 42.778 188.798 43.033C189.389 43.288 190.026 43.4197 190.67 43.42C191.472 43.4302 192.266 43.255 192.989 42.9081C193.712 42.5611 194.346 42.0519 194.84 41.42V35.37Z" fill="white"/>
<path d="M230.05 21.65L230.23 21.83V25.68L230.05 25.86H218.35V31.34H227L227.18 31.52V35.37L227 35.55H218.32V46.67L218.14 46.85H214.32L214.14 46.67V21.83L214.32 21.65H230.05Z" fill="white"/>
<path d="M234.73 22.73L237.36 25.32V25.68L234.73 28.31H234.37L231.74 25.68V25.32L234.37 22.73H234.73ZM236.46 29.93L236.64 30.11V46.67L236.46 46.85H232.64L232.46 46.67V30.11L232.64 29.93H236.46Z" fill="white"/>
<path d="M245.82 29.93L246 30.11V30.65C247.369 29.8559 248.918 29.4223 250.5 29.39C255.9 29.39 258.6 32.45 258.6 37.31V46.67L258.42 46.85H254.6L254.42 46.67V37.78C254.42 34.9 252.98 33.42 250.28 33.42C249.481 33.409 248.689 33.5633 247.952 33.873C247.216 34.1828 246.551 34.6414 246 35.22V46.67L245.82 46.85H242L241.82 46.67V30.11L242 29.93H245.82Z" fill="white"/>
<path d="M264.79 30.47C266.181 29.7526 267.725 29.3821 269.29 29.39C273.29 29.39 276.56 31.73 276.56 36.59V46.67L276.38 46.85H272.53L272.35 46.67V46.13C271.122 46.9444 269.683 47.3824 268.21 47.39C265.29 47.39 262.27 45.95 262.27 42.39C262.27 37.63 267.2 36.16 272.35 35.87C272.35 34.36 271.09 33.17 269.11 33.17C266.974 33.2345 264.911 33.9652 263.21 35.26L263.03 35.08L264.79 30.47ZM272.35 39.07C268.57 39.25 266.59 40.37 266.59 41.95C266.59 43.07 267.49 43.61 268.71 43.61C269.999 43.5881 271.258 43.2147 272.35 42.53V39.07Z" fill="white"/>
<path d="M285.34 29.93L285.53 30.11V30.65C286.89 29.8591 288.427 29.4257 290 29.39C295.4 29.39 298.1 32.45 298.1 37.31V46.67L297.92 46.85H294.11L293.93 46.67V37.78C293.93 34.9 292.49 33.42 289.79 33.42C288.991 33.409 288.199 33.5633 287.462 33.873C286.726 34.1828 286.061 34.6414 285.51 35.22V46.67L285.32 46.85H281.51L281.33 46.67V30.11L281.51 29.93H285.34Z" fill="white"/>
<path d="M317 35.62C315.471 34.2306 313.486 33.4482 311.42 33.42C310.721 33.3431 310.015 33.4144 309.345 33.6291C308.676 33.8438 308.06 34.1972 307.537 34.6661C307.013 35.1351 306.594 35.7091 306.308 36.3507C306.021 36.9924 305.873 37.6872 305.873 38.39C305.873 39.0928 306.021 39.7876 306.308 40.4293C306.594 41.0709 307.013 41.6449 307.537 42.1139C308.06 42.5828 308.676 42.9362 309.345 43.1509C310.015 43.3656 310.721 43.4369 311.42 43.36C313.486 43.3318 315.471 42.5494 317 41.16L317.18 41.34V45.59C315.505 46.7968 313.484 47.4283 311.42 47.39C305.84 47.39 302.06 43.39 302.06 38.39C302.06 33.39 305.84 29.39 311.42 29.39C313.484 29.3517 315.505 29.9832 317.18 31.19V35.44L317 35.62Z" fill="white"/>
<path d="M336.5 45.27C334.51 46.5908 332.188 47.3254 329.8 47.39C328.567 47.4369 327.337 47.2357 326.183 46.7984C325.029 46.3611 323.974 45.6966 323.082 44.8443C322.189 43.9919 321.477 42.969 320.987 41.8363C320.497 40.7036 320.24 39.4841 320.23 38.25C320.179 37.0856 320.368 35.9231 320.785 34.8349C321.203 33.7468 321.84 32.7562 322.657 31.9251C323.475 31.0939 324.454 30.4399 325.535 30.0037C326.616 29.5676 327.775 29.3587 328.94 29.39C333.73 29.39 336.71 33.49 336.71 37.74C336.74 38.2493 336.682 38.7601 336.54 39.25L336.25 39.43H324.48C324.682 40.6666 325.34 41.7824 326.326 42.5565C327.311 43.3305 328.551 43.7065 329.8 43.61C332.219 43.5632 334.537 42.6352 336.32 41L336.5 41.18V45.27ZM332.5 36.27C332.386 35.4085 331.961 34.6183 331.305 34.0476C330.65 33.4769 329.809 33.1649 328.94 33.17C327.976 33.1257 327.026 33.4075 326.242 33.97C325.458 34.5325 324.887 35.3428 324.62 36.27H332.5Z" fill="white"/>
<path d="M34.62 69.24C41.4672 69.24 48.1606 67.2096 53.8538 63.4055C59.5471 59.6014 63.9844 54.1945 66.6047 47.8685C69.225 41.5425 69.9106 34.5816 68.5748 27.866C67.239 21.1504 63.9417 14.9817 59.1 10.14C54.2583 5.29827 48.0896 2.00103 41.374 0.665214C34.6584 -0.670606 27.6975 0.0149851 21.3715 2.63529C15.0455 5.2556 9.63862 9.69293 5.83452 15.3862C2.03043 21.0794 0 27.7728 0 34.62C0 43.8018 3.64745 52.6075 10.14 59.1C16.6325 65.5925 25.4382 69.24 34.62 69.24V69.24Z" fill="white"/>
<path d="M42.78 18H26.46L9.45999 34.66L26.46 51.32H42.78L59.78 34.66L42.78 18Z" fill="#101722"/>
<path d="M34.62 45.26C33.2267 45.2587 31.8475 44.9815 30.5619 44.4442C29.2763 43.907 28.1099 43.1205 27.13 42.13C25.1309 40.1211 24.006 37.4041 24 34.57H29C29.0185 35.6858 29.3664 36.7713 30 37.69C30.6075 38.6122 31.4762 39.3323 32.4952 39.7581C33.5142 40.1838 34.637 40.2959 35.72 40.08C36.8036 39.852 37.7962 39.3101 38.5739 38.5218C39.3515 37.7335 39.88 36.7337 40.0932 35.6471C40.3065 34.5604 40.1952 33.4351 39.7732 32.4113C39.3511 31.3875 38.6371 30.5107 37.72 29.89C36.8087 29.2704 35.732 28.9394 34.63 28.94V23.87C36.0214 23.8737 37.3985 24.1521 38.6821 24.6892C39.9657 25.2263 41.1306 26.0116 42.11 27C44.0966 29.0168 45.2102 31.7341 45.2102 34.565C45.2102 37.3959 44.0966 40.1132 42.11 42.13C41.1307 43.1213 39.9645 43.9085 38.6787 44.4458C37.393 44.9831 36.0135 45.2598 34.62 45.26Z" fill="white"/>
</svg>
